<svg xmlns="http://www.w3.org/2000/svg" xmlns:xlink="http://www.w3.org/1999/xlink" width="448" height="256" viewBox="-14 -15 448 256"><defs><style>.cls-1{isolation:isolate;}.cls-2{fill:url(#linear-gradient);}.cls-3{fill:url(#linear-gradient-2);}.cls-4{fill:url(#radial-gradient);}.cls-5{fill:url(#linear-gradient-3);}.cls-6{fill:url(#linear-gradient-4);}.cls-7{fill:url(#linear-gradient-5);}.cls-8{fill:url(#linear-gradient-6);}.cls-9{fill:url(#linear-gradient-7);}.cls-10{fill:url(#linear-gradient-8);}.cls-11,.cls-12,.cls-13,.cls-14{mix-blend-mode:multiply;}.cls-11{fill:url(#linear-gradient-9);}.cls-12{fill:url(#linear-gradient-10);}.cls-13{fill:url(#linear-gradient-11);}.cls-14{opacity:0.5;fill:url(#linear-gradient-12);}.cls-15,.cls-16{fill:#fff;}.cls-16{opacity:0.9;}.cls-17{fill:url(#linear-gradient-13);}</style><linearGradient id="linear-gradient" x1="1723.25" y1="-1290.15" x2="1846.8" y2="-1290.15" gradientTransform="translate(-311.36 2298.05) rotate(-23.13)" gradientUnits="userSpaceOnUse"><stop offset="0" stop-color="#d84f27"/><stop offset="0.42" stop-color="#ee6224"/><stop offset="1" stop-color="#ef9423"/></linearGradient><linearGradient id="linear-gradient-2" x1="1153.73" y1="-222.79" x2="1498.02" y2="-222.79" gradientTransform="translate(-248.58 941.3) rotate(-10.9)" xlink:href="#linear-gradient"/><radialGradient id="radial-gradient" cx="1083.86" cy="414.75" r="138.73" gradientUnits="userSpaceOnUse"><stop offset="0.46" stop-color="#fde1d6"/><stop offset="0.87" stop-color="#ea8039"/></radialGradient><linearGradient id="linear-gradient-3" x1="1002.63" y1="429.78" x2="1163.24" y2="429.78" gradientUnits="userSpaceOnUse"><stop offset="0.12" stop-color="#ee662e"/><stop offset="0.38" stop-color="#ee6b2e"/><stop offset="0.67" stop-color="#ef782c"/><stop offset="0.98" stop-color="#f08f2a"/><stop offset="1" stop-color="#f0902a"/></linearGradient><linearGradient id="linear-gradient-4" x1="824.8" y1="469.84" x2="1002.63" y2="469.84" gradientUnits="userSpaceOnUse"><stop offset="0" stop-color="#da4428"/><stop offset="1" stop-color="#ec5f2b"/></linearGradient><linearGradient id="linear-gradient-5" x1="824.8" y1="441.56" x2="1094.95" y2="441.56" gradientUnits="userSpaceOnUse"><stop offset="0" stop-color="#ec6630"/><stop offset="1" stop-color="#f9a03a"/></linearGradient><linearGradient id="linear-gradient-6" x1="990.62" y1="566.96" x2="990.62" y2="526.15" gradientUnits="userSpaceOnUse"><stop offset="0" stop-color="#e66725"/><stop offset="1" stop-color="#f4ae78"/></linearGradient><linearGradient id="linear-gradient-7" x1="864.56" y1="521.67" x2="1048.86" y2="521.67" gradientUnits="userSpaceOnUse"><stop offset="0" stop-color="#d43927"/><stop offset="1" stop-color="#e65725"/></linearGradient><linearGradient id="linear-gradient-8" x1="1337.66" y1="-116.95" x2="1426.62" y2="-219.67" gradientTransform="translate(-248.58 941.3) rotate(-10.9)" gradientUnits="userSpaceOnUse"><stop offset="0" stop-color="#b72127"/><stop offset="0.37" stop-color="#de2927"/><stop offset="0.91" stop-color="#dc5626"/></linearGradient><linearGradient id="linear-gradient-9" x1="-3313.91" y1="-183.96" x2="-3313.91" y2="-183.96" gradientTransform="matrix(0.73, -0.68, 0.68, 0.73, 2748.99, -2071.57)" gradientUnits="userSpaceOnUse"><stop offset="0" stop-color="#ee6224"/><stop offset="1" stop-color="#eeb521"/></linearGradient><linearGradient id="linear-gradient-10" x1="-3314.91" y1="-183.96" x2="-3312.91" y2="-183.96" xlink:href="#linear-gradient-9"/><linearGradient id="linear-gradient-11" x1="311.03" y1="739.36" x2="596.58" y2="739.36" gradientTransform="matrix(1, -0.05, 0.05, 1, 537.93, -211.04)" gradientUnits="userSpaceOnUse"><stop offset="0" stop-color="#fde1d5"/><stop offset="0.26" stop-color="#f9caa0"/><stop offset="0.61" stop-color="#f4ad5d"/><stop offset="0.87" stop-color="#f09b33"/><stop offset="1" stop-color="#ef9423"/></linearGradient><linearGradient id="linear-gradient-12" x1="605.1" y1="678.43" x2="925.61" y2="678.43" gradientTransform="translate(231.31 -179.15) rotate(1.07)" gradientUnits="userSpaceOnUse"><stop offset="0" stop-color="#ee6224"/><stop offset="1" stop-color="#ef9423"/></linearGradient><linearGradient id="linear-gradient-13" x1="1296.84" y1="-284.44" x2="1309.21" y2="-241.17" gradientTransform="translate(-248.58 941.3) rotate(-10.9)" gradientUnits="userSpaceOnUse"><stop offset="0" stop-color="#d84f27"/><stop offset="0.42" stop-color="#ee6224"/><stop offset="1" stop-color="#ee8022"/></linearGradient></defs><title>Embulk logo</title><g class="cls-1"><g id="Layer_1" data-name="Layer 1"><path class="cls-2" d="M868,357.71a61.78,61.78,0,0,1-113.62,48.54c19.86-8.49,51.45-15.17,70.4,7.55C819.42,386,847.72,366.38,868,357.71Z" transform="translate(-754.39 -357.71)"/><path class="cls-3" d="M1162.76,368.21h0s-23,1.38-32.37,3.87c-9,2.41-24.39,8.54-34.13,17.47l-1.54,1.46c-23.4,22.68-73.6,64.64-134.76,76.41C878.93,483,824.8,413.8,824.8,413.8S854.94,596,1026.35,563s146.38-163,145.9-165.54c-4.09-21.24-9.49-29.22-9.49-29.22Z" transform="translate(-754.39 -357.71)"/><path class="cls-4" d="M1172.25,397.43c-4.09-21.24-9.49-29.22-9.49-29.22s8.49,56.35-46,91.16h0c2.59,28.66-1,53.25-7.61,72.82,42.5-27,57.67-63.18,62.54-91.26h0C1175.94,416.61,1172.43,398.36,1172.25,397.43Z" transform="translate(-754.39 -357.71)"/><path class="cls-5" d="M1093.59,392.24a223.4,223.4,0,0,0-14.55,17c-16.41,21.41-42.84,55.7-76.41,82.11a383.51,383.51,0,0,0,46.23-6.63h0c18.17-3.84,43.78-10.18,67.93-25.34h0c54.46-34.81,46-91.16,46-91.16s-23,1.38-32.37,3.87c-9,2.41-24.43,8.56-34.16,17.5,0,0-1,1-1.67,1.66Z" transform="translate(-754.39 -357.71)"/><path class="cls-6" d="M824.8,413.8c0,.08,7.32,44.14,35.13,85,1.43,2.09,2.84,4.08,4.23,6l0,.06c3.49,4.7,17.68,16.52,40,20.09,18.1,2.89,42.49-.44,63.46-11a208.36,208.36,0,0,0,34.93-22.56C861,502.54,824.83,413.87,824.8,413.8Z" transform="translate(-754.39 -357.71)"/><path class="cls-7" d="M960,467.42C878.93,483,824.8,413.8,824.8,413.8h0c0,.07,36.17,88.74,177.83,77.55,33.57-26.41,60-60.7,76.41-82.11a228.83,228.83,0,0,1,15.9-18.43c.12-.13-1.09,1-1.84,1.75C1069.08,415.54,1019.79,455.91,960,467.42Z" transform="translate(-754.39 -357.71)"/><path class="cls-8" d="M1047.4,526.16c-33.14,22.49-72.07,36.57-115.32,31.4h0c25.3,9.47,56.32,12.72,94.27,5.41,8-1.55,15.62-3.31,22.8-5.26a267.05,267.05,0,0,1-1.75-31.55Z" transform="translate(-754.39 -357.71)"/><path class="cls-9" d="M1002.63,491.35a208.36,208.36,0,0,1-34.93,22.56c-21,10.55-45.36,13.88-63.46,11-21.65-3.46-35.65-14.67-39.68-19.64,15.91,21.38,37.76,41.15,67.53,52.3h0c43.25,5.17,82.18-8.91,115.32-31.4-.11-21.78,1.46-41.44,1.46-41.44A383.51,383.51,0,0,1,1002.63,491.35Z" transform="translate(-754.39 -357.71)"/><path class="cls-10" d="M1048.86,484.71s-7.53,94.5,11.54,98.67c22.57,4.93,63.66-43.51,56.39-124C1092.64,474.54,1067,480.87,1048.86,484.71Z" transform="translate(-754.39 -357.71)"/><polygon class="cls-11" points="208.17 63.87 208.17 63.87 208.17 63.87 208.17 63.87"/><polygon class="cls-12" points="208.17 63.87 208.17 63.87 208.17 63.87 208.17 63.87"/><path class="cls-13" d="M902.3,512.93l-.44-.55Z" transform="translate(-754.39 -357.71)"/><path class="cls-14" d="M901.23,511.57l.63.81-.75-1Z" transform="translate(-754.39 -357.71)"/><circle class="cls-15" cx="1124.63" cy="430.61" r="7.19" transform="translate(-744.17 529.3) rotate(-43.22)"/><path class="cls-16" d="M1069.11,458.71c4.07,3.88,22.18-9.38,30.91-18.54s12.71-19.56,8.88-23.21-14,.82-22.76,10S1065,454.83,1069.11,458.71Z" transform="translate(-754.39 -357.71)"/><path class="cls-17" d="M935.5,434.52c9.77,4.89,27.79,15.13,38.15,29.71,21.13-5.71,40.71-14.75,58-24.92a131.47,131.47,0,0,0-43.8-21c-11.42-3-29.38-5.32-45.85-2.28-8.22,1.52-14.66,6.15-14.45,11.06C927.76,431.43,933.82,433.69,935.5,434.52Z" transform="translate(-754.39 -357.71)"/></g></g></svg>
